<?xml version="1.0" encoding="utf-8"?>
<!-- Generated by Mocodo 4.2.12 -->
<svg width="973" height="647" viewBox="0 0 973 647" xmlns="http://www.w3.org/2000/svg">
<rect x="0" y="0" width="973" height="647" fill="#f7f7f7" stroke="none" stroke-width="0"/>

<!-- Association HASROLE -->
<g>
	<line x1="924" y1="89" x2="782" y2="89" stroke="#d6604d" stroke-width="1"/>
	<line x1="782" y1="328" x2="782" y2="89" stroke="#d6604d" stroke-width="1"/>
	<g>
		<path d="M804 63 a14 14 90 0 1 14 14 V89 h-72 V77 a14 14 90 0 1 14 -14" fill="#f4a582" stroke="#f4a582" stroke-width="0"/>
		<path d="M818 89 v12 a14 14 90 0 1 -14 14 H760 a14 14 90 0 1 -14 -14 V89 H72" fill="#fddbc7" stroke="#fddbc7" stroke-width="0"/>
		<rect x="746" y="63" width="72" height="52" fill="none" rx="14" stroke="#d6604d" stroke-width="1.5"/>
		<line x1="746" y1="89" x2="818" y2="89" stroke="#d6604d" stroke-width="1"/>
		<text x="754" y="81.6" fill="#000000" font-family="Trebuchet MS" font-size="14">HasRole</text>
	</g>
	<text x="855" y="106" fill="#2166ac" font-family="Verdana" font-size="12">0,N</text>
	<text x="787" y="285" fill="#2166ac" font-family="Verdana" font-size="12">0,N</text>
</g>

<!-- Association CONTAINS -->
<g>
	<line x1="69" y1="89" x2="69" y2="328" stroke="#d6604d" stroke-width="1"/>
	<line x1="69" y1="540" x2="69" y2="328" stroke="#d6604d" stroke-width="1"/>
	<g>
		<path d="M93 302 a14 14 90 0 1 14 14 V328 h-76 V316 a14 14 90 0 1 14 -14" fill="#f4a582" stroke="#f4a582" stroke-width="0"/>
		<path d="M107 328 v12 a14 14 90 0 1 -14 14 H45 a14 14 90 0 1 -14 -14 V328 H76" fill="#fddbc7" stroke="#fddbc7" stroke-width="0"/>
		<rect x="31" y="302" width="76" height="52" fill="none" rx="14" stroke="#d6604d" stroke-width="1.5"/>
		<line x1="31" y1="328" x2="107" y2="328" stroke="#d6604d" stroke-width="1"/>
		<text x="38" y="320.6" fill="#000000" font-family="Trebuchet MS" font-size="14">Contains</text>
	</g>
	<text x="74" y="177" fill="#2166ac" font-family="Verdana" font-size="12">1,N</text>
	<text x="74" y="461" fill="#2166ac" font-family="Verdana" font-size="12">0,N</text>
</g>

<!-- Association CASTS -->
<g>
	<line x1="242" y1="89" x2="242" y2="328" stroke="#d6604d" stroke-width="1"/>
	<line x1="379" y1="328" x2="242" y2="328" stroke="#d6604d" stroke-width="1"/>
	<g>
		<path d="M254 302 a14 14 90 0 1 14 14 V328 h-52 V316 a14 14 90 0 1 14 -14" fill="#f4a582" stroke="#f4a582" stroke-width="0"/>
		<path d="M268 328 v12 a14 14 90 0 1 -14 14 H230 a14 14 90 0 1 -14 -14 V328 H52" fill="#fddbc7" stroke="#fddbc7" stroke-width="0"/>
		<rect x="216" y="302" width="52" height="52" fill="none" rx="14" stroke="#d6604d" stroke-width="1.5"/>
		<line x1="216" y1="328" x2="268" y2="328" stroke="#d6604d" stroke-width="1"/>
		<text x="223" y="320.6" fill="#000000" font-family="Trebuchet MS" font-size="14">Casts</text>
	</g>
	<text x="247" y="168" fill="#2166ac" font-family="Verdana" font-size="12">1,N</text>
	<text x="287" y="345" fill="#2166ac" font-family="Verdana" font-size="12">0,N</text>
</g>

<!-- Association RECORDS -->
<g>
	<line x1="924" y1="89" x2="924" y2="328" stroke="#d6604d" stroke-width="1"/>
	<line x1="924" y1="540" x2="924" y2="328" stroke="#d6604d" stroke-width="1"/>
	<g>
		<path d="M945 302 a14 14 90 0 1 14 14 V328 h-70 V316 a14 14 90 0 1 14 -14" fill="#f4a582" stroke="#f4a582" stroke-width="0"/>
		<path d="M959 328 v12 a14 14 90 0 1 -14 14 H903 a14 14 90 0 1 -14 -14 V328 H70" fill="#fddbc7" stroke="#fddbc7" stroke-width="0"/>
		<rect x="889" y="302" width="70" height="52" fill="none" rx="14" stroke="#d6604d" stroke-width="1.5"/>
		<line x1="889" y1="328" x2="959" y2="328" stroke="#d6604d" stroke-width="1"/>
		<text x="896" y="320.6" fill="#000000" font-family="Trebuchet MS" font-size="14">Records</text>
	</g>
	<text x="929" y="186" fill="#2166ac" font-family="Verdana" font-size="12">1,N</text>
	<text x="929" y="488" fill="#2166ac" font-family="Verdana" font-size="12">0,N</text>
</g>

<!-- Association HASSPELLEFFECT -->
<g>
	<line x1="379" y1="328" x2="379" y2="540" stroke="#d6604d" stroke-width="1"/>
	<line x1="242" y1="540" x2="379" y2="540" stroke="#d6604d" stroke-width="1"/>
	<g>
		<path d="M424 514 a14 14 90 0 1 14 14 V540 h-118 V528 a14 14 90 0 1 14 -14" fill="#f4a582" stroke="#f4a582" stroke-width="0"/>
		<path d="M438 540 v12 a14 14 90 0 1 -14 14 H334 a14 14 90 0 1 -14 -14 V540 H118" fill="#fddbc7" stroke="#fddbc7" stroke-width="0"/>
		<rect x="320" y="514" width="118" height="52" fill="none" rx="14" stroke="#d6604d" stroke-width="1.5"/>
		<line x1="320" y1="540" x2="438" y2="540" stroke="#d6604d" stroke-width="1"/>
		<text x="328" y="532.6" fill="#000000" font-family="Trebuchet MS" font-size="14">HasSpellEffect</text>
	</g>
	<text x="384" y="497" fill="#2166ac" font-family="Verdana" font-size="12">1,N</text>
	<text x="291" y="557" fill="#2166ac" font-family="Verdana" font-size="12">0,N</text>
</g>

<!-- Association HASEFFECT -->
<g>
	<line x1="782" y1="540" x2="631" y2="540" stroke="#d6604d" stroke-width="1"/>
	<line x1="631" y1="328" x2="631" y2="540" stroke="#d6604d" stroke-width="1"/>
	<g>
		<path d="M659 514 a14 14 90 0 1 14 14 V540 h-84 V528 a14 14 90 0 1 14 -14" fill="#f4a582" stroke="#f4a582" stroke-width="0"/>
		<path d="M673 540 v12 a14 14 90 0 1 -14 14 H603 a14 14 90 0 1 -14 -14 V540 H84" fill="#fddbc7" stroke="#fddbc7" stroke-width="0"/>
		<rect x="589" y="514" width="84" height="52" fill="none" rx="14" stroke="#d6604d" stroke-width="1.5"/>
		<line x1="589" y1="540" x2="673" y2="540" stroke="#d6604d" stroke-width="1"/>
		<text x="597" y="532.6" fill="#000000" font-family="Trebuchet MS" font-size="14">HasEffect</text>
	</g>
	<text x="678" y="557" fill="#2166ac" font-family="Verdana" font-size="12">1,N</text>
	<text x="636" y="380" fill="#2166ac" font-family="Verdana" font-size="12">0,N</text>
</g>

<!-- Entity PATCHNOTE -->
<g>
	<g>
		<rect x="27" y="18" width="84" height="26" fill="#92c5de" stroke="none" stroke-width="0" opacity="1"/>
		<rect x="27" y="44" width="84" height="116" fill="#d1e5f0" stroke="none" stroke-width="0" opacity="1"/>
		<rect x="27" y="18" width="84" height="142" fill="none" stroke="#4393c3" stroke-width="1.5" opacity="1"/>
		<line x1="27" y1="44" x2="111" y2="44" stroke="#4393c3" stroke-width="1"/>
	</g>
	<text x="33" y="36.6" fill="#000000" font-family="Trebuchet MS" font-size="14">Patchnote</text>
	<text x="32" y="62.6" fill="#000000" font-family="Trebuchet MS" font-size="14">version</text>
	<line x1="32" y1="65" x2="83" y2="65" stroke="#000000" stroke-width="1"/>
	<text x="32" y="80.6" fill="#000000" font-family="Trebuchet MS" font-size="14">title</text>
	<text x="32" y="98.6" fill="#000000" font-family="Trebuchet MS" font-size="14">date</text>
	<text x="32" y="116.6" fill="#000000" font-family="Trebuchet MS" font-size="14">author</text>
	<text x="32" y="134.6" fill="#000000" font-family="Trebuchet MS" font-size="14">content</text>
	<text x="32" y="152.6" fill="#000000" font-family="Trebuchet MS" font-size="14">state</text>
</g>

<!-- Entity HERO -->
<g>
	<g>
		<rect x="197" y="27" width="90" height="26" fill="#92c5de" stroke="none" stroke-width="0" opacity="1"/>
		<rect x="197" y="53" width="90" height="98" fill="#d1e5f0" stroke="none" stroke-width="0" opacity="1"/>
		<rect x="197" y="27" width="90" height="124" fill="none" stroke="#4393c3" stroke-width="1.5" opacity="1"/>
		<line x1="197" y1="53" x2="287" y2="53" stroke="#4393c3" stroke-width="1"/>
	</g>
	<text x="225" y="45.6" fill="#000000" font-family="Trebuchet MS" font-size="14">Hero</text>
	<text x="202" y="71.6" fill="#000000" font-family="Trebuchet MS" font-size="14">name</text>
	<line x1="202" y1="74" x2="242" y2="74" stroke="#000000" stroke-width="1"/>
	<text x="202" y="89.6" fill="#000000" font-family="Trebuchet MS" font-size="14">resume</text>
	<text x="202" y="107.6" fill="#000000" font-family="Trebuchet MS" font-size="14">description</text>
	<text x="202" y="125.6" fill="#000000" font-family="Trebuchet MS" font-size="14">img_path</text>
	<text x="202" y="143.6" fill="#000000" font-family="Trebuchet MS" font-size="14">video_path</text>
</g>

<!-- Entity SETTING -->
<g>
	<g>
		<rect x="348" y="45" width="62" height="26" fill="#92c5de" stroke="none" stroke-width="0" opacity="1"/>
		<rect x="348" y="71" width="62" height="62" fill="#d1e5f0" stroke="none" stroke-width="0" opacity="1"/>
		<rect x="348" y="45" width="62" height="88" fill="none" stroke="#4393c3" stroke-width="1.5" opacity="1"/>
		<line x1="348" y1="71" x2="410" y2="71" stroke="#4393c3" stroke-width="1"/>
	</g>
	<text x="354" y="63.6" fill="#000000" font-family="Trebuchet MS" font-size="14">Setting</text>
	<text x="353" y="89.6" fill="#000000" font-family="Trebuchet MS" font-size="14">key</text>
	<line x1="353" y1="92" x2="378" y2="92" stroke="#000000" stroke-width="1"/>
	<text x="353" y="107.6" fill="#000000" font-family="Trebuchet MS" font-size="14">value</text>
	<text x="353" y="125.6" fill="#000000" font-family="Trebuchet MS" font-size="14">type</text>
</g>

<!-- Entity KEYWORD -->
<g>
	<g>
		<rect x="444" y="45" width="118" height="26" fill="#92c5de" stroke="none" stroke-width="0" opacity="1"/>
		<rect x="444" y="71" width="118" height="62" fill="#d1e5f0" stroke="none" stroke-width="0" opacity="1"/>
		<rect x="444" y="45" width="118" height="88" fill="none" stroke="#4393c3" stroke-width="1.5" opacity="1"/>
		<line x1="444" y1="71" x2="562" y2="71" stroke="#4393c3" stroke-width="1"/>
	</g>
	<text x="472" y="63.6" fill="#000000" font-family="Trebuchet MS" font-size="14">Keyword</text>
	<text x="449" y="89.6" fill="#000000" font-family="Trebuchet MS" font-size="14">ressource_type</text>
	<line x1="449" y1="92" x2="557" y2="92" stroke="#000000" stroke-width="1"/>
	<text x="449" y="107.6" fill="#000000" font-family="Trebuchet MS" font-size="14">ressource_id</text>
	<text x="449" y="125.6" fill="#000000" font-family="Trebuchet MS" font-size="14">value</text>
</g>

<!-- Entity STATISTIC -->
<g>
	<g>
		<rect x="596" y="36" width="70" height="26" fill="#92c5de" stroke="none" stroke-width="0" opacity="1"/>
		<rect x="596" y="62" width="70" height="80" fill="#d1e5f0" stroke="none" stroke-width="0" opacity="1"/>
		<rect x="596" y="36" width="70" height="106" fill="none" stroke="#4393c3" stroke-width="1.5" opacity="1"/>
		<line x1="596" y1="62" x2="666" y2="62" stroke="#4393c3" stroke-width="1"/>
	</g>
	<text x="602" y="54.6" fill="#000000" font-family="Trebuchet MS" font-size="14">Statistic</text>
	<text x="601" y="80.6" fill="#000000" font-family="Trebuchet MS" font-size="14">origin</text>
	<line x1="601" y1="83" x2="642" y2="83" stroke="#000000" stroke-width="1"/>
	<text x="601" y="98.6" fill="#000000" font-family="Trebuchet MS" font-size="14">count</text>
	<text x="601" y="116.6" fill="#000000" font-family="Trebuchet MS" font-size="14">date</text>
	<text x="601" y="134.6" fill="#000000" font-family="Trebuchet MS" font-size="14">type</text>
</g>

<!-- Entity USER -->
<g>
	<g>
		<rect x="884" y="9" width="80" height="26" fill="#92c5de" stroke="none" stroke-width="0" opacity="1"/>
		<rect x="884" y="35" width="80" height="134" fill="#d1e5f0" stroke="none" stroke-width="0" opacity="1"/>
		<rect x="884" y="9" width="80" height="160" fill="none" stroke="#4393c3" stroke-width="1.5" opacity="1"/>
		<line x1="884" y1="35" x2="964" y2="35" stroke="#4393c3" stroke-width="1"/>
	</g>
	<text x="908" y="27.6" fill="#000000" font-family="Trebuchet MS" font-size="14">User</text>
	<text x="889" y="53.6" fill="#000000" font-family="Trebuchet MS" font-size="14">login</text>
	<line x1="889" y1="56" x2="924" y2="56" stroke="#000000" stroke-width="1"/>
	<text x="889" y="71.6" fill="#000000" font-family="Trebuchet MS" font-size="14">password</text>
	<text x="889" y="89.6" fill="#000000" font-family="Trebuchet MS" font-size="14">firstname</text>
	<text x="889" y="107.6" fill="#000000" font-family="Trebuchet MS" font-size="14">lastname</text>
	<text x="889" y="125.6" fill="#000000" font-family="Trebuchet MS" font-size="14">nickname</text>
	<text x="889" y="143.6" fill="#000000" font-family="Trebuchet MS" font-size="14">email</text>
	<text x="889" y="161.6" fill="#000000" font-family="Trebuchet MS" font-size="14">2fa</text>
</g>

<!-- Entity SPELL -->
<g>
	<g>
		<rect x="316" y="176" width="126" height="26" fill="#92c5de" stroke="none" stroke-width="0" opacity="1"/>
		<rect x="316" y="202" width="126" height="278" fill="#d1e5f0" stroke="none" stroke-width="0" opacity="1"/>
		<rect x="316" y="176" width="126" height="304" fill="none" stroke="#4393c3" stroke-width="1.5" opacity="1"/>
		<line x1="316" y1="202" x2="442" y2="202" stroke="#4393c3" stroke-width="1"/>
	</g>
	<text x="362" y="194.6" fill="#000000" font-family="Trebuchet MS" font-size="14">Spell</text>
	<text x="321" y="220.6" fill="#000000" font-family="Trebuchet MS" font-size="14">order</text>
	<line x1="321" y1="223" x2="360" y2="223" stroke="#000000" stroke-width="1"/>
	<text x="321" y="238.6" fill="#000000" font-family="Trebuchet MS" font-size="14">name</text>
	<text x="321" y="256.6" fill="#000000" font-family="Trebuchet MS" font-size="14">description</text>
	<text x="321" y="274.6" fill="#000000" font-family="Trebuchet MS" font-size="14">passive</text>
	<text x="321" y="292.6" fill="#000000" font-family="Trebuchet MS" font-size="14">charge</text>
	<text x="321" y="310.6" fill="#000000" font-family="Trebuchet MS" font-size="14">charge_count</text>
	<text x="321" y="328.6" fill="#000000" font-family="Trebuchet MS" font-size="14">charge_time</text>
	<text x="321" y="346.6" fill="#000000" font-family="Trebuchet MS" font-size="14">charge_interval</text>
	<text x="321" y="364.6" fill="#000000" font-family="Trebuchet MS" font-size="14">cooldown</text>
	<text x="321" y="382.6" fill="#000000" font-family="Trebuchet MS" font-size="14">distance</text>
	<text x="321" y="400.6" fill="#000000" font-family="Trebuchet MS" font-size="14">first_upgrade</text>
	<text x="321" y="418.6" fill="#000000" font-family="Trebuchet MS" font-size="14">second_upgrade</text>
	<text x="321" y="436.6" fill="#000000" font-family="Trebuchet MS" font-size="14">third_upgrade</text>
	<text x="321" y="454.6" fill="#000000" font-family="Trebuchet MS" font-size="14">icon_path</text>
	<text x="321" y="472.6" fill="#000000" font-family="Trebuchet MS" font-size="14">demo_path</text>
</g>

<!-- Entity ITEMEFFECT -->
<g>
	<g>
		<rect x="588" y="293" width="86" height="26" fill="#92c5de" stroke="none" stroke-width="0" opacity="1"/>
		<rect x="588" y="319" width="86" height="44" fill="#d1e5f0" stroke="none" stroke-width="0" opacity="1"/>
		<rect x="588" y="293" width="86" height="70" fill="none" stroke="#4393c3" stroke-width="1.5" opacity="1"/>
		<line x1="588" y1="319" x2="674" y2="319" stroke="#4393c3" stroke-width="1"/>
	</g>
	<text x="593" y="311.6" fill="#000000" font-family="Trebuchet MS" font-size="14">ItemEffect</text>
	<text x="593" y="337.6" fill="#000000" font-family="Trebuchet MS" font-size="14">type</text>
	<line x1="593" y1="340" x2="626" y2="340" stroke="#000000" stroke-width="1"/>
	<text x="593" y="355.6" fill="#000000" font-family="Trebuchet MS" font-size="14">effect</text>
</g>

<!-- Entity ROLE -->
<g>
	<g>
		<rect x="752" y="293" width="60" height="26" fill="#92c5de" stroke="none" stroke-width="0" opacity="1"/>
		<rect x="752" y="319" width="60" height="44" fill="#d1e5f0" stroke="none" stroke-width="0" opacity="1"/>
		<rect x="752" y="293" width="60" height="70" fill="none" stroke="#4393c3" stroke-width="1.5" opacity="1"/>
		<line x1="752" y1="319" x2="812" y2="319" stroke="#4393c3" stroke-width="1"/>
	</g>
	<text x="766" y="311.6" fill="#000000" font-family="Trebuchet MS" font-size="14">Role</text>
	<text x="757" y="337.6" fill="#000000" font-family="Trebuchet MS" font-size="14">name</text>
	<line x1="757" y1="340" x2="797" y2="340" stroke="#000000" stroke-width="1"/>
	<text x="757" y="355.6" fill="#000000" font-family="Trebuchet MS" font-size="14">weight</text>
</g>

<!-- Entity PATCHNOTEENTRY -->
<g>
	<g>
		<rect x="9" y="469" width="120" height="26" fill="#92c5de" stroke="none" stroke-width="0" opacity="1"/>
		<rect x="9" y="495" width="120" height="116" fill="#d1e5f0" stroke="none" stroke-width="0" opacity="1"/>
		<rect x="9" y="469" width="120" height="142" fill="none" stroke="#4393c3" stroke-width="1.5" opacity="1"/>
		<line x1="9" y1="495" x2="129" y2="495" stroke="#4393c3" stroke-width="1"/>
	</g>
	<text x="14" y="487.6" fill="#000000" font-family="Trebuchet MS" font-size="14">PatchnoteEntry</text>
	<text x="14" y="513.6" fill="#000000" font-family="Trebuchet MS" font-size="14">patchnote_id</text>
	<line x1="14" y1="516" x2="108" y2="516" stroke="#000000" stroke-width="1"/>
	<text x="14" y="531.6" fill="#000000" font-family="Trebuchet MS" font-size="14">category</text>
	<text x="14" y="549.6" fill="#000000" font-family="Trebuchet MS" font-size="14">ressource_type</text>
	<text x="14" y="567.6" fill="#000000" font-family="Trebuchet MS" font-size="14">ressource_id</text>
	<text x="14" y="585.6" fill="#000000" font-family="Trebuchet MS" font-size="14">position</text>
	<text x="14" y="603.6" fill="#000000" font-family="Trebuchet MS" font-size="14">description</text>
</g>

<!-- Entity SPELLEFFECT -->
<g>
	<g>
		<rect x="198" y="505" width="88" height="26" fill="#92c5de" stroke="none" stroke-width="0" opacity="1"/>
		<rect x="198" y="531" width="88" height="44" fill="#d1e5f0" stroke="none" stroke-width="0" opacity="1"/>
		<rect x="198" y="505" width="88" height="70" fill="none" stroke="#4393c3" stroke-width="1.5" opacity="1"/>
		<line x1="198" y1="531" x2="286" y2="531" stroke="#4393c3" stroke-width="1"/>
	</g>
	<text x="203" y="523.6" fill="#000000" font-family="Trebuchet MS" font-size="14">SpellEffect</text>
	<text x="203" y="549.6" fill="#000000" font-family="Trebuchet MS" font-size="14">order</text>
	<line x1="203" y1="552" x2="242" y2="552" stroke="#000000" stroke-width="1"/>
	<text x="203" y="567.6" fill="#000000" font-family="Trebuchet MS" font-size="14">effect</text>
</g>

<!-- Entity ITEM -->
<g>
	<g>
		<rect x="707" y="442" width="150" height="26" fill="#92c5de" stroke="none" stroke-width="0" opacity="1"/>
		<rect x="707" y="468" width="150" height="170" fill="#d1e5f0" stroke="none" stroke-width="0" opacity="1"/>
		<rect x="707" y="442" width="150" height="196" fill="none" stroke="#4393c3" stroke-width="1.5" opacity="1"/>
		<line x1="707" y1="468" x2="857" y2="468" stroke="#4393c3" stroke-width="1"/>
	</g>
	<text x="766" y="460.6" fill="#000000" font-family="Trebuchet MS" font-size="14">Item</text>
	<text x="712" y="486.6" fill="#000000" font-family="Trebuchet MS" font-size="14">category</text>
	<line x1="712" y1="489" x2="774" y2="489" stroke="#000000" stroke-width="1"/>
	<text x="712" y="504.6" fill="#000000" font-family="Trebuchet MS" font-size="14">name</text>
	<text x="712" y="522.6" fill="#000000" font-family="Trebuchet MS" font-size="14">cost</text>
	<text x="712" y="540.6" fill="#000000" font-family="Trebuchet MS" font-size="14">common_bonus</text>
	<text x="712" y="558.6" fill="#000000" font-family="Trebuchet MS" font-size="14">active_description</text>
	<text x="712" y="576.6" fill="#000000" font-family="Trebuchet MS" font-size="14">active_duration</text>
	<text x="712" y="594.6" fill="#000000" font-family="Trebuchet MS" font-size="14">passive_description</text>
	<text x="712" y="612.6" fill="#000000" font-family="Trebuchet MS" font-size="14">passive_duration</text>
	<text x="712" y="630.6" fill="#000000" font-family="Trebuchet MS" font-size="14">parent_id</text>
</g>

<!-- Entity LOG -->
<g>
	<g>
		<rect x="891" y="496" width="66" height="26" fill="#92c5de" stroke="none" stroke-width="0" opacity="1"/>
		<rect x="891" y="522" width="66" height="62" fill="#d1e5f0" stroke="none" stroke-width="0" opacity="1"/>
		<rect x="891" y="496" width="66" height="88" fill="none" stroke="#4393c3" stroke-width="1.5" opacity="1"/>
		<line x1="891" y1="522" x2="957" y2="522" stroke="#4393c3" stroke-width="1"/>
	</g>
	<text x="912" y="514.6" fill="#000000" font-family="Trebuchet MS" font-size="14">Log</text>
	<text x="896" y="540.6" fill="#000000" font-family="Trebuchet MS" font-size="14">action</text>
	<line x1="896" y1="543" x2="941" y2="543" stroke="#000000" stroke-width="1"/>
	<text x="896" y="558.6" fill="#000000" font-family="Trebuchet MS" font-size="14">context</text>
	<text x="896" y="576.6" fill="#000000" font-family="Trebuchet MS" font-size="14">ip</text>
</g>
</svg>