<?xml version="1.0" encoding="utf-8"?>
<!-- Generated by Mocodo 4.2.11 -->
<svg width="611" height="305" viewBox="0 0 611 305" xmlns="http://www.w3.org/2000/svg">
<rect x="0" y="0" width="611" height="305" fill="#f7f7f7" stroke="none" stroke-width="0"/>

<!-- Association MANAGES -->
<g>
	<line x1="255" y1="94" x2="145" y2="94" stroke="#d6604d" stroke-width="2"/>
	<line x1="42" y1="94" x2="145" y2="94" stroke="#d6604d" stroke-width="2"/>
	<g>
		<path d="M169 69 a14 14 90 0 1 14 14 V94 h-76 V83 a14 14 90 0 1 14 -14" fill="#f4a582" stroke="#f4a582" stroke-width="0"/>
		<path d="M183 94 v11 a14 14 90 0 1 -14 14 H121 a14 14 90 0 1 -14 -14 V94 H76" fill="#fddbc7" stroke="#fddbc7" stroke-width="0"/>
		<rect x="107" y="69" width="76" height="50" fill="none" rx="14" stroke="#d6604d" stroke-width="2"/>
		<line x1="107" y1="94" x2="183" y2="94" stroke="#d6604d" stroke-width="1"/>
		<text x="114" y="86.75" fill="#000000" font-family="Verdana" font-size="12">MANAGES</text>
	</g>
	<text x="193" y="86" fill="#2166ac" font-family="Verdana" font-size="12">0,N</text>
	<text x="80" y="111" fill="#2166ac" font-family="Verdana" font-size="12">1,1</text>
</g>

<!-- Association PUBLISHES -->
<g>
	<line x1="255" y1="94" x2="365" y2="94" stroke="#d6604d" stroke-width="2"/>
	<line x1="482" y1="94" x2="365" y2="94" stroke="#d6604d" stroke-width="2"/>
	<g>
		<path d="M393 69 a14 14 90 0 1 14 14 V94 h-84 V83 a14 14 90 0 1 14 -14" fill="#f4a582" stroke="#f4a582" stroke-width="0"/>
		<path d="M407 94 v11 a14 14 90 0 1 -14 14 H337 a14 14 90 0 1 -14 -14 V94 H84" fill="#fddbc7" stroke="#fddbc7" stroke-width="0"/>
		<rect x="323" y="69" width="84" height="50" fill="none" rx="14" stroke="#d6604d" stroke-width="2"/>
		<line x1="323" y1="94" x2="407" y2="94" stroke="#d6604d" stroke-width="1"/>
		<text x="330" y="86.75" fill="#000000" font-family="Verdana" font-size="12">PUBLISHES</text>
	</g>
	<text x="295" y="86" fill="#2166ac" font-family="Verdana" font-size="12">0,N</text>
	<text x="412" y="111" fill="#2166ac" font-family="Verdana" font-size="12">0,N</text>
</g>

<!-- Association RECORDS -->
<g>
	<line x1="255" y1="94" x2="145" y2="237" stroke="#d6604d" stroke-width="2"/>
	<line x1="42" y1="237" x2="145" y2="237" stroke="#d6604d" stroke-width="2"/>
	<g>
		<path d="M169 212 a14 14 90 0 1 14 14 V237 h-76 V226 a14 14 90 0 1 14 -14" fill="#f4a582" stroke="#f4a582" stroke-width="0"/>
		<path d="M183 237 v11 a14 14 90 0 1 -14 14 H121 a14 14 90 0 1 -14 -14 V237 H76" fill="#fddbc7" stroke="#fddbc7" stroke-width="0"/>
		<rect x="107" y="212" width="76" height="50" fill="none" rx="14" stroke="#d6604d" stroke-width="2"/>
		<line x1="107" y1="237" x2="183" y2="237" stroke="#d6604d" stroke-width="1"/>
		<text x="115" y="229.75" fill="#000000" font-family="Verdana" font-size="12">RECORDS</text>
	</g>
	<text x="193" y="137.28" fill="#2166ac" font-family="Verdana" font-size="12">1,N</text>
	<text x="75" y="254" fill="#2166ac" font-family="Verdana" font-size="12">1,N</text>
</g>

<!-- Association ANALYZES -->
<g>
	<line x1="255" y1="94" x2="255" y2="237" stroke="#d6604d" stroke-width="2"/>
	<line x1="365" y1="237" x2="255" y2="237" stroke="#d6604d" stroke-width="2"/>
	<g>
		<path d="M281 212 a14 14 90 0 1 14 14 V237 h-80 V226 a14 14 90 0 1 14 -14" fill="#f4a582" stroke="#f4a582" stroke-width="0"/>
		<path d="M295 237 v11 a14 14 90 0 1 -14 14 H229 a14 14 90 0 1 -14 -14 V237 H80" fill="#fddbc7" stroke="#fddbc7" stroke-width="0"/>
		<rect x="215" y="212" width="80" height="50" fill="none" rx="14" stroke="#d6604d" stroke-width="2"/>
		<line x1="215" y1="237" x2="295" y2="237" stroke="#d6604d" stroke-width="1"/>
		<text x="223" y="229.75" fill="#000000" font-family="Verdana" font-size="12">ANALYZES</text>
	</g>
	<text x="260" y="196" fill="#2166ac" font-family="Verdana" font-size="12">0,N</text>
	<text x="301" y="254" fill="#2166ac" font-family="Verdana" font-size="12">1,1</text>
</g>

<!-- Association ASSIGNS -->
<g>
	<line x1="255" y1="94" x2="482" y2="237" stroke="#d6604d" stroke-width="2"/>
	<line x1="576" y1="237" x2="482" y2="237" stroke="#d6604d" stroke-width="2"/>
	<g>
		<path d="M504 212 a14 14 90 0 1 14 14 V237 h-72 V226 a14 14 90 0 1 14 -14" fill="#f4a582" stroke="#f4a582" stroke-width="0"/>
		<path d="M518 237 v11 a14 14 90 0 1 -14 14 H460 a14 14 90 0 1 -14 -14 V237 H72" fill="#fddbc7" stroke="#fddbc7" stroke-width="0"/>
		<rect x="446" y="212" width="72" height="50" fill="none" rx="14" stroke="#d6604d" stroke-width="2"/>
		<line x1="446" y1="237" x2="518" y2="237" stroke="#d6604d" stroke-width="1"/>
		<text x="454" y="229.75" fill="#000000" font-family="Verdana" font-size="12">ASSIGNS</text>
	</g>
	<text x="295" y="112.91" fill="#2166ac" font-family="Verdana" font-size="12">1,N</text>
	<text x="524" y="254" fill="#2166ac" font-family="Verdana" font-size="12">1,1</text>
</g>

<!-- Entity SETTING -->
<g>
	<g>
		<rect x="9" y="43" width="66" height="25" fill="#92c5de" stroke="none" stroke-width="0" opacity="1"/>
		<rect x="9" y="68" width="66" height="77" fill="#d1e5f0" stroke="none" stroke-width="0" opacity="1"/>
		<rect x="9" y="43" width="66" height="102" fill="none" stroke="#4393c3" stroke-width="2" opacity="1"/>
		<line x1="9" y1="68" x2="75" y2="68" stroke="#4393c3" stroke-width="1"/>
	</g>
	<text x="15" y="60.75" fill="#000000" font-family="Verdana" font-size="12">SETTING</text>
	<text x="14" y="85.8" fill="#000000" font-family="Verdana" font-size="12">id</text>
	<line x1="14" y1="88" x2="26" y2="88" stroke="#000000" stroke-width="1"/>
	<text x="14" y="102.8" fill="#000000" font-family="Verdana" font-size="12">key</text>
	<text x="14" y="119.8" fill="#000000" font-family="Verdana" font-size="12">value</text>
	<text x="14" y="136.8" fill="#000000" font-family="Verdana" font-size="12">type</text>
</g>

<!-- Entity USER -->
<g>
	<g>
		<rect x="220" y="9" width="70" height="25" fill="#92c5de" stroke="none" stroke-width="0" opacity="1"/>
		<rect x="220" y="34" width="70" height="145" fill="#d1e5f0" stroke="none" stroke-width="0" opacity="1"/>
		<rect x="220" y="9" width="70" height="170" fill="none" stroke="#4393c3" stroke-width="2" opacity="1"/>
		<line x1="220" y1="34" x2="290" y2="34" stroke="#4393c3" stroke-width="1"/>
	</g>
	<text x="238" y="26.75" fill="#000000" font-family="Verdana" font-size="12">USER</text>
	<text x="225" y="51.8" fill="#000000" font-family="Verdana" font-size="12">id</text>
	<line x1="225" y1="54" x2="237" y2="54" stroke="#000000" stroke-width="1"/>
	<text x="225" y="68.8" fill="#000000" font-family="Verdana" font-size="12">login</text>
	<text x="225" y="85.8" fill="#000000" font-family="Verdana" font-size="12">password</text>
	<text x="225" y="102.8" fill="#000000" font-family="Verdana" font-size="12">firstname</text>
	<text x="225" y="119.8" fill="#000000" font-family="Verdana" font-size="12">lastname</text>
	<text x="225" y="136.8" fill="#000000" font-family="Verdana" font-size="12">nickname</text>
	<text x="225" y="153.8" fill="#000000" font-family="Verdana" font-size="12">email</text>
	<text x="225" y="170.8" fill="#000000" font-family="Verdana" font-size="12">2fa</text>
</g>

<!-- Entity PATCHNOTE -->
<g>
	<g>
		<rect x="439" y="18" width="86" height="25" fill="#92c5de" stroke="none" stroke-width="0" opacity="1"/>
		<rect x="439" y="43" width="86" height="127" fill="#d1e5f0" stroke="none" stroke-width="0" opacity="1"/>
		<rect x="439" y="18" width="86" height="152" fill="none" stroke="#4393c3" stroke-width="2" opacity="1"/>
		<line x1="439" y1="43" x2="525" y2="43" stroke="#4393c3" stroke-width="1"/>
	</g>
	<text x="445" y="35.75" fill="#000000" font-family="Verdana" font-size="12">PATCHNOTE</text>
	<text x="444" y="60.8" fill="#000000" font-family="Verdana" font-size="12">id</text>
	<line x1="444" y1="63" x2="456" y2="63" stroke="#000000" stroke-width="1"/>
	<text x="444" y="77.8" fill="#000000" font-family="Verdana" font-size="12">version</text>
	<text x="444" y="94.8" fill="#000000" font-family="Verdana" font-size="12">title</text>
	<text x="444" y="111.8" fill="#000000" font-family="Verdana" font-size="12">date</text>
	<text x="444" y="128.8" fill="#000000" font-family="Verdana" font-size="12">author</text>
	<text x="444" y="145.8" fill="#000000" font-family="Verdana" font-size="12">content</text>
	<text x="444" y="162.8" fill="#000000" font-family="Verdana" font-size="12">state</text>
</g>

<!-- Entity LOG -->
<g>
	<g>
		<rect x="14" y="186" width="56" height="25" fill="#92c5de" stroke="none" stroke-width="0" opacity="1"/>
		<rect x="14" y="211" width="56" height="77" fill="#d1e5f0" stroke="none" stroke-width="0" opacity="1"/>
		<rect x="14" y="186" width="56" height="102" fill="none" stroke="#4393c3" stroke-width="2" opacity="1"/>
		<line x1="14" y1="211" x2="70" y2="211" stroke="#4393c3" stroke-width="1"/>
	</g>
	<text x="29" y="203.75" fill="#000000" font-family="Verdana" font-size="12">LOG</text>
	<text x="19" y="228.8" fill="#000000" font-family="Verdana" font-size="12">id</text>
	<line x1="19" y1="231" x2="31" y2="231" stroke="#000000" stroke-width="1"/>
	<text x="19" y="245.8" fill="#000000" font-family="Verdana" font-size="12">action</text>
	<text x="19" y="262.8" fill="#000000" font-family="Verdana" font-size="12">context</text>
	<text x="19" y="279.8" fill="#000000" font-family="Verdana" font-size="12">ip</text>
</g>

<!-- Entity STATISTIC -->
<g>
	<g>
		<rect x="327" y="178" width="76" height="25" fill="#92c5de" stroke="none" stroke-width="0" opacity="1"/>
		<rect x="327" y="203" width="76" height="93" fill="#d1e5f0" stroke="none" stroke-width="0" opacity="1"/>
		<rect x="327" y="178" width="76" height="118" fill="none" stroke="#4393c3" stroke-width="2" opacity="1"/>
		<line x1="327" y1="203" x2="403" y2="203" stroke="#4393c3" stroke-width="1"/>
	</g>
	<text x="332" y="195.75" fill="#000000" font-family="Verdana" font-size="12">STATISTIC</text>
	<text x="332" y="220.8" fill="#000000" font-family="Verdana" font-size="12">id</text>
	<line x1="332" y1="223" x2="344" y2="223" stroke="#000000" stroke-width="1"/>
	<text x="332" y="237.8" fill="#000000" font-family="Verdana" font-size="12">origin</text>
	<text x="332" y="254.8" fill="#000000" font-family="Verdana" font-size="12">count</text>
	<text x="332" y="271.8" fill="#000000" font-family="Verdana" font-size="12">date</text>
	<text x="332" y="288.8" fill="#000000" font-family="Verdana" font-size="12">type</text>
</g>

<!-- Entity ROLE -->
<g>
	<g>
		<rect x="550" y="195" width="52" height="25" fill="#92c5de" stroke="none" stroke-width="0" opacity="1"/>
		<rect x="550" y="220" width="52" height="59" fill="#d1e5f0" stroke="none" stroke-width="0" opacity="1"/>
		<rect x="550" y="195" width="52" height="84" fill="none" stroke="#4393c3" stroke-width="2" opacity="1"/>
		<line x1="550" y1="220" x2="602" y2="220" stroke="#4393c3" stroke-width="1"/>
	</g>
	<text x="560" y="212.75" fill="#000000" font-family="Verdana" font-size="12">ROLE</text>
	<text x="555" y="237.8" fill="#000000" font-family="Verdana" font-size="12">id</text>
	<line x1="555" y1="240" x2="567" y2="240" stroke="#000000" stroke-width="1"/>
	<text x="555" y="254.8" fill="#000000" font-family="Verdana" font-size="12">name</text>
	<text x="555" y="271.8" fill="#000000" font-family="Verdana" font-size="12">weight</text>
</g>
</svg>