<?xml version="1.0" encoding="utf-8"?>
<!-- Generated by Mocodo 4.2.12 -->
<svg width="1024" height="602" viewBox="0 0 1024 602" xmlns="http://www.w3.org/2000/svg">
<rect x="0" y="0" width="1024" height="602" fill="#f7f7f7" stroke="none" stroke-width="0"/>

<!-- Association HASSPELLEFFECT -->
<g>
	<line x1="385" y1="161" x2="232" y2="161" stroke="#d6604d" stroke-width="1"/>
	<line x1="232" y1="364" x2="232" y2="161" stroke="#d6604d" stroke-width="1"/>
	<g>
		<path d="M277 135 a14 14 90 0 1 14 14 V161 h-118 V149 a14 14 90 0 1 14 -14" fill="#f4a582" stroke="#f4a582" stroke-width="0"/>
		<path d="M291 161 v12 a14 14 90 0 1 -14 14 H187 a14 14 90 0 1 -14 -14 V161 H118" fill="#fddbc7" stroke="#fddbc7" stroke-width="0"/>
		<rect x="173" y="135" width="118" height="52" fill="none" rx="14" stroke="#d6604d" stroke-width="1.5"/>
		<line x1="173" y1="161" x2="291" y2="161" stroke="#d6604d" stroke-width="1"/>
		<text x="181" y="153.6" fill="#000000" font-family="Trebuchet MS" font-size="14">HasSpellEffect</text>
	</g>
	<text x="296" y="178" fill="#2166ac" font-family="Verdana" font-size="12">1,N</text>
	<text x="237" y="321" fill="#2166ac" font-family="Verdana" font-size="12">0,N</text>
</g>

<!-- Association CASTS -->
<g>
	<line x1="533" y1="364" x2="533" y2="161" stroke="#d6604d" stroke-width="1"/>
	<line x1="385" y1="161" x2="533" y2="161" stroke="#d6604d" stroke-width="1"/>
	<g>
		<path d="M545 135 a14 14 90 0 1 14 14 V161 h-52 V149 a14 14 90 0 1 14 -14" fill="#f4a582" stroke="#f4a582" stroke-width="0"/>
		<path d="M559 161 v12 a14 14 90 0 1 -14 14 H521 a14 14 90 0 1 -14 -14 V161 H52" fill="#fddbc7" stroke="#fddbc7" stroke-width="0"/>
		<rect x="507" y="135" width="52" height="52" fill="none" rx="14" stroke="#d6604d" stroke-width="1.5"/>
		<line x1="507" y1="161" x2="559" y2="161" stroke="#d6604d" stroke-width="1"/>
		<text x="514" y="153.6" fill="#000000" font-family="Trebuchet MS" font-size="14">Casts</text>
	</g>
	<text x="538" y="294" fill="#2166ac" font-family="Verdana" font-size="12">1,N</text>
	<text x="450" y="178" fill="#2166ac" font-family="Verdana" font-size="12">0,N</text>
</g>

<!-- Association RECORDS -->
<g>
	<line x1="770" y1="364" x2="770" y2="161" stroke="#d6604d" stroke-width="1"/>
	<line x1="878" y1="161" x2="770" y2="161" stroke="#d6604d" stroke-width="1"/>
	<g>
		<path d="M791 135 a14 14 90 0 1 14 14 V161 h-70 V149 a14 14 90 0 1 14 -14" fill="#f4a582" stroke="#f4a582" stroke-width="0"/>
		<path d="M805 161 v12 a14 14 90 0 1 -14 14 H749 a14 14 90 0 1 -14 -14 V161 H70" fill="#fddbc7" stroke="#fddbc7" stroke-width="0"/>
		<rect x="735" y="135" width="70" height="52" fill="none" rx="14" stroke="#d6604d" stroke-width="1.5"/>
		<line x1="735" y1="161" x2="805" y2="161" stroke="#d6604d" stroke-width="1"/>
		<text x="742" y="153.6" fill="#000000" font-family="Trebuchet MS" font-size="14">Records</text>
	</g>
	<text x="775" y="276" fill="#2166ac" font-family="Verdana" font-size="12">1,N</text>
	<text x="815" y="178" fill="#2166ac" font-family="Verdana" font-size="12">1,N</text>
</g>

<!-- Association HASEFFECT -->
<g>
	<line x1="70" y1="504" x2="70" y2="364" stroke="#d6604d" stroke-width="1"/>
	<line x1="70" y1="161" x2="70" y2="364" stroke="#d6604d" stroke-width="1"/>
	<g>
		<path d="M98 338 a14 14 90 0 1 14 14 V364 h-84 V352 a14 14 90 0 1 14 -14" fill="#f4a582" stroke="#f4a582" stroke-width="0"/>
		<path d="M112 364 v12 a14 14 90 0 1 -14 14 H42 a14 14 90 0 1 -14 -14 V364 H84" fill="#fddbc7" stroke="#fddbc7" stroke-width="0"/>
		<rect x="28" y="338" width="84" height="52" fill="none" rx="14" stroke="#d6604d" stroke-width="1.5"/>
		<line x1="28" y1="364" x2="112" y2="364" stroke="#d6604d" stroke-width="1"/>
		<text x="36" y="356.6" fill="#000000" font-family="Trebuchet MS" font-size="14">HasEffect</text>
	</g>
	<text x="75" y="407" fill="#2166ac" font-family="Verdana" font-size="12">1,N</text>
	<text x="75" y="213" fill="#2166ac" font-family="Verdana" font-size="12">0,N</text>
</g>

<!-- Association HASKEYWORDSPELL -->
<g>
	<line x1="385" y1="161" x2="385" y2="364" stroke="#d6604d" stroke-width="1"/>
	<line x1="385" y1="504" x2="385" y2="364" stroke="#d6604d" stroke-width="1"/>
	<g>
		<path d="M439 338 a14 14 90 0 1 14 14 V364 h-136 V352 a14 14 90 0 1 14 -14" fill="#f4a582" stroke="#f4a582" stroke-width="0"/>
		<path d="M453 364 v12 a14 14 90 0 1 -14 14 H331 a14 14 90 0 1 -14 -14 V364 H136" fill="#fddbc7" stroke="#fddbc7" stroke-width="0"/>
		<rect x="317" y="338" width="136" height="52" fill="none" rx="14" stroke="#d6604d" stroke-width="1.5"/>
		<line x1="317" y1="364" x2="453" y2="364" stroke="#d6604d" stroke-width="1"/>
		<text x="325" y="356.6" fill="#000000" font-family="Trebuchet MS" font-size="14">HasKeywordSpell</text>
	</g>
	<text x="390" y="330" fill="#2166ac" font-family="Verdana" font-size="12">0,N</text>
	<text x="390" y="470" fill="#2166ac" font-family="Verdana" font-size="12">1,N</text>
</g>

<!-- Association PUBLISHES -->
<g>
	<line x1="770" y1="364" x2="654" y2="364" stroke="#d6604d" stroke-width="1"/>
	<line x1="654" y1="161" x2="654" y2="364" stroke="#d6604d" stroke-width="1"/>
	<g>
		<path d="M681 338 a14 14 90 0 1 14 14 V364 h-82 V352 a14 14 90 0 1 14 -14" fill="#f4a582" stroke="#f4a582" stroke-width="0"/>
		<path d="M695 364 v12 a14 14 90 0 1 -14 14 H627 a14 14 90 0 1 -14 -14 V364 H82" fill="#fddbc7" stroke="#fddbc7" stroke-width="0"/>
		<rect x="613" y="338" width="82" height="52" fill="none" rx="14" stroke="#d6604d" stroke-width="1.5"/>
		<line x1="613" y1="364" x2="695" y2="364" stroke="#d6604d" stroke-width="1"/>
		<text x="621" y="356.6" fill="#000000" font-family="Trebuchet MS" font-size="14">Publishes</text>
	</g>
	<text x="700" y="381" fill="#2166ac" font-family="Verdana" font-size="12">0,N</text>
	<text x="659" y="249" fill="#2166ac" font-family="Verdana" font-size="12">0,N</text>
</g>

<!-- Association ASSIGNS -->
<g>
	<line x1="770" y1="364" x2="878" y2="364" stroke="#d6604d" stroke-width="1"/>
	<line x1="878" y1="504" x2="878" y2="364" stroke="#d6604d" stroke-width="1"/>
	<g>
		<path d="M897 338 a14 14 90 0 1 14 14 V364 h-66 V352 a14 14 90 0 1 14 -14" fill="#f4a582" stroke="#f4a582" stroke-width="0"/>
		<path d="M911 364 v12 a14 14 90 0 1 -14 14 H859 a14 14 90 0 1 -14 -14 V364 H66" fill="#fddbc7" stroke="#fddbc7" stroke-width="0"/>
		<rect x="845" y="338" width="66" height="52" fill="none" rx="14" stroke="#d6604d" stroke-width="1.5"/>
		<line x1="845" y1="364" x2="911" y2="364" stroke="#d6604d" stroke-width="1"/>
		<text x="853" y="356.6" fill="#000000" font-family="Trebuchet MS" font-size="14">Assigns</text>
	</g>
	<text x="816" y="381" fill="#2166ac" font-family="Verdana" font-size="12">1,N</text>
	<text x="883" y="461" fill="#2166ac" font-family="Verdana" font-size="12">1,1</text>
</g>

<!-- Association HASKEYWORDITEM -->
<g>
	<line x1="70" y1="504" x2="232" y2="504" stroke="#d6604d" stroke-width="1"/>
	<line x1="385" y1="504" x2="232" y2="504" stroke="#d6604d" stroke-width="1"/>
	<g>
		<path d="M285 478 a14 14 90 0 1 14 14 V504 h-134 V492 a14 14 90 0 1 14 -14" fill="#f4a582" stroke="#f4a582" stroke-width="0"/>
		<path d="M299 504 v12 a14 14 90 0 1 -14 14 H179 a14 14 90 0 1 -14 -14 V504 H134" fill="#fddbc7" stroke="#fddbc7" stroke-width="0"/>
		<rect x="165" y="478" width="134" height="52" fill="none" rx="14" stroke="#d6604d" stroke-width="1.5"/>
		<line x1="165" y1="504" x2="299" y2="504" stroke="#d6604d" stroke-width="1"/>
		<text x="173" y="496.6" fill="#000000" font-family="Trebuchet MS" font-size="14">HasKeywordItem</text>
	</g>
	<text x="136" y="521" fill="#2166ac" font-family="Verdana" font-size="12">0,N</text>
	<text x="320" y="521" fill="#2166ac" font-family="Verdana" font-size="12">1,N</text>
</g>

<!-- Association HASKEYWORDHERO -->
<g>
	<line x1="533" y1="364" x2="533" y2="504" stroke="#d6604d" stroke-width="1"/>
	<line x1="385" y1="504" x2="533" y2="504" stroke="#d6604d" stroke-width="1"/>
	<g>
		<path d="M586 478 a14 14 90 0 1 14 14 V504 h-134 V492 a14 14 90 0 1 14 -14" fill="#f4a582" stroke="#f4a582" stroke-width="0"/>
		<path d="M600 504 v12 a14 14 90 0 1 -14 14 H480 a14 14 90 0 1 -14 -14 V504 H134" fill="#fddbc7" stroke="#fddbc7" stroke-width="0"/>
		<rect x="466" y="478" width="134" height="52" fill="none" rx="14" stroke="#d6604d" stroke-width="1.5"/>
		<line x1="466" y1="504" x2="600" y2="504" stroke="#d6604d" stroke-width="1"/>
		<text x="473" y="496.6" fill="#000000" font-family="Trebuchet MS" font-size="14">HasKeywordHero</text>
	</g>
	<text x="538" y="443" fill="#2166ac" font-family="Verdana" font-size="12">0,N</text>
	<text x="426" y="521" fill="#2166ac" font-family="Verdana" font-size="12">1,N</text>
</g>

<!-- Entity ITEMEFFECT -->
<g>
	<g>
		<rect x="27" y="126" width="86" height="26" fill="#92c5de" stroke="none" stroke-width="0" opacity="1"/>
		<rect x="27" y="152" width="86" height="44" fill="#d1e5f0" stroke="none" stroke-width="0" opacity="1"/>
		<rect x="27" y="126" width="86" height="70" fill="none" stroke="#4393c3" stroke-width="1.5" opacity="1"/>
		<line x1="27" y1="152" x2="113" y2="152" stroke="#4393c3" stroke-width="1"/>
	</g>
	<text x="32" y="144.6" fill="#000000" font-family="Trebuchet MS" font-size="14">ItemEffect</text>
	<text x="32" y="170.6" fill="#000000" font-family="Trebuchet MS" font-size="14">Type</text>
	<line x1="32" y1="173" x2="67" y2="173" stroke="#000000" stroke-width="1"/>
	<text x="32" y="188.6" fill="#000000" font-family="Trebuchet MS" font-size="14">Effect</text>
</g>

<!-- Entity SPELL -->
<g>
	<g>
		<rect x="325" y="9" width="120" height="26" fill="#92c5de" stroke="none" stroke-width="0" opacity="1"/>
		<rect x="325" y="35" width="120" height="278" fill="#d1e5f0" stroke="none" stroke-width="0" opacity="1"/>
		<rect x="325" y="9" width="120" height="304" fill="none" stroke="#4393c3" stroke-width="1.5" opacity="1"/>
		<line x1="325" y1="35" x2="445" y2="35" stroke="#4393c3" stroke-width="1"/>
	</g>
	<text x="368" y="27.6" fill="#000000" font-family="Trebuchet MS" font-size="14">Spell</text>
	<text x="330" y="53.6" fill="#000000" font-family="Trebuchet MS" font-size="14">Order</text>
	<line x1="330" y1="56" x2="371" y2="56" stroke="#000000" stroke-width="1"/>
	<text x="330" y="71.6" fill="#000000" font-family="Trebuchet MS" font-size="14">Name</text>
	<text x="330" y="89.6" fill="#000000" font-family="Trebuchet MS" font-size="14">Description</text>
	<text x="330" y="107.6" fill="#000000" font-family="Trebuchet MS" font-size="14">Passive</text>
	<text x="330" y="125.6" fill="#000000" font-family="Trebuchet MS" font-size="14">Charge</text>
	<text x="330" y="143.6" fill="#000000" font-family="Trebuchet MS" font-size="14">ChargeCount</text>
	<text x="330" y="161.6" fill="#000000" font-family="Trebuchet MS" font-size="14">ChargeTime</text>
	<text x="330" y="179.6" fill="#000000" font-family="Trebuchet MS" font-size="14">ChargeInterval</text>
	<text x="330" y="197.6" fill="#000000" font-family="Trebuchet MS" font-size="14">Cooldown</text>
	<text x="330" y="215.6" fill="#000000" font-family="Trebuchet MS" font-size="14">Distance</text>
	<text x="330" y="233.6" fill="#000000" font-family="Trebuchet MS" font-size="14">FirstUpgrade</text>
	<text x="330" y="251.6" fill="#000000" font-family="Trebuchet MS" font-size="14">SecondUpgrade</text>
	<text x="330" y="269.6" fill="#000000" font-family="Trebuchet MS" font-size="14">ThirdUpgrade</text>
	<text x="330" y="287.6" fill="#000000" font-family="Trebuchet MS" font-size="14">IconPath</text>
	<text x="330" y="305.6" fill="#000000" font-family="Trebuchet MS" font-size="14">DemoPath</text>
</g>

<!-- Entity PATCHNOTE -->
<g>
	<g>
		<rect x="612" y="90" width="84" height="26" fill="#92c5de" stroke="none" stroke-width="0" opacity="1"/>
		<rect x="612" y="116" width="84" height="116" fill="#d1e5f0" stroke="none" stroke-width="0" opacity="1"/>
		<rect x="612" y="90" width="84" height="142" fill="none" stroke="#4393c3" stroke-width="1.5" opacity="1"/>
		<line x1="612" y1="116" x2="696" y2="116" stroke="#4393c3" stroke-width="1"/>
	</g>
	<text x="618" y="108.6" fill="#000000" font-family="Trebuchet MS" font-size="14">Patchnote</text>
	<text x="617" y="134.6" fill="#000000" font-family="Trebuchet MS" font-size="14">Version</text>
	<line x1="617" y1="137" x2="670" y2="137" stroke="#000000" stroke-width="1"/>
	<text x="617" y="152.6" fill="#000000" font-family="Trebuchet MS" font-size="14">Title</text>
	<text x="617" y="170.6" fill="#000000" font-family="Trebuchet MS" font-size="14">Date</text>
	<text x="617" y="188.6" fill="#000000" font-family="Trebuchet MS" font-size="14">Author</text>
	<text x="617" y="206.6" fill="#000000" font-family="Trebuchet MS" font-size="14">Content</text>
	<text x="617" y="224.6" fill="#000000" font-family="Trebuchet MS" font-size="14">State</text>
</g>

<!-- Entity LOG -->
<g>
	<g>
		<rect x="844" y="117" width="68" height="26" fill="#92c5de" stroke="none" stroke-width="0" opacity="1"/>
		<rect x="844" y="143" width="68" height="62" fill="#d1e5f0" stroke="none" stroke-width="0" opacity="1"/>
		<rect x="844" y="117" width="68" height="88" fill="none" stroke="#4393c3" stroke-width="1.5" opacity="1"/>
		<line x1="844" y1="143" x2="912" y2="143" stroke="#4393c3" stroke-width="1"/>
	</g>
	<text x="866" y="135.6" fill="#000000" font-family="Trebuchet MS" font-size="14">Log</text>
	<text x="849" y="161.6" fill="#000000" font-family="Trebuchet MS" font-size="14">Action</text>
	<line x1="849" y1="164" x2="895" y2="164" stroke="#000000" stroke-width="1"/>
	<text x="849" y="179.6" fill="#000000" font-family="Trebuchet MS" font-size="14">Context</text>
	<text x="849" y="197.6" fill="#000000" font-family="Trebuchet MS" font-size="14">Ip</text>
</g>

<!-- Entity SETTING -->
<g>
	<g>
		<rect x="949" y="117" width="62" height="26" fill="#92c5de" stroke="none" stroke-width="0" opacity="1"/>
		<rect x="949" y="143" width="62" height="62" fill="#d1e5f0" stroke="none" stroke-width="0" opacity="1"/>
		<rect x="949" y="117" width="62" height="88" fill="none" stroke="#4393c3" stroke-width="1.5" opacity="1"/>
		<line x1="949" y1="143" x2="1011" y2="143" stroke="#4393c3" stroke-width="1"/>
	</g>
	<text x="955" y="135.6" fill="#000000" font-family="Trebuchet MS" font-size="14">Setting</text>
	<text x="954" y="161.6" fill="#000000" font-family="Trebuchet MS" font-size="14">Key</text>
	<line x1="954" y1="164" x2="980" y2="164" stroke="#000000" stroke-width="1"/>
	<text x="954" y="179.6" fill="#000000" font-family="Trebuchet MS" font-size="14">Value</text>
	<text x="954" y="197.6" fill="#000000" font-family="Trebuchet MS" font-size="14">Type</text>
</g>

<!-- Entity SPELLEFFECT -->
<g>
	<g>
		<rect x="188" y="329" width="88" height="26" fill="#92c5de" stroke="none" stroke-width="0" opacity="1"/>
		<rect x="188" y="355" width="88" height="44" fill="#d1e5f0" stroke="none" stroke-width="0" opacity="1"/>
		<rect x="188" y="329" width="88" height="70" fill="none" stroke="#4393c3" stroke-width="1.5" opacity="1"/>
		<line x1="188" y1="355" x2="276" y2="355" stroke="#4393c3" stroke-width="1"/>
	</g>
	<text x="193" y="347.6" fill="#000000" font-family="Trebuchet MS" font-size="14">SpellEffect</text>
	<text x="193" y="373.6" fill="#000000" font-family="Trebuchet MS" font-size="14">Effect</text>
	<line x1="193" y1="376" x2="237" y2="376" stroke="#000000" stroke-width="1"/>
	<text x="193" y="391.6" fill="#000000" font-family="Trebuchet MS" font-size="14">Order</text>
</g>

<!-- Entity HERO -->
<g>
	<g>
		<rect x="487" y="302" width="92" height="26" fill="#92c5de" stroke="none" stroke-width="0" opacity="1"/>
		<rect x="487" y="328" width="92" height="98" fill="#d1e5f0" stroke="none" stroke-width="0" opacity="1"/>
		<rect x="487" y="302" width="92" height="124" fill="none" stroke="#4393c3" stroke-width="1.5" opacity="1"/>
		<line x1="487" y1="328" x2="579" y2="328" stroke="#4393c3" stroke-width="1"/>
	</g>
	<text x="516" y="320.6" fill="#000000" font-family="Trebuchet MS" font-size="14">Hero</text>
	<text x="492" y="346.6" fill="#000000" font-family="Trebuchet MS" font-size="14">Name</text>
	<line x1="492" y1="349" x2="533" y2="349" stroke="#000000" stroke-width="1"/>
	<text x="492" y="364.6" fill="#000000" font-family="Trebuchet MS" font-size="14">Resume</text>
	<text x="492" y="382.6" fill="#000000" font-family="Trebuchet MS" font-size="14">Description</text>
	<text x="492" y="400.6" fill="#000000" font-family="Trebuchet MS" font-size="14">ImgPath</text>
	<text x="492" y="418.6" fill="#000000" font-family="Trebuchet MS" font-size="14">VideoPath</text>
</g>

<!-- Entity USER -->
<g>
	<g>
		<rect x="729" y="284" width="82" height="26" fill="#92c5de" stroke="none" stroke-width="0" opacity="1"/>
		<rect x="729" y="310" width="82" height="134" fill="#d1e5f0" stroke="none" stroke-width="0" opacity="1"/>
		<rect x="729" y="284" width="82" height="160" fill="none" stroke="#4393c3" stroke-width="1.5" opacity="1"/>
		<line x1="729" y1="310" x2="811" y2="310" stroke="#4393c3" stroke-width="1"/>
	</g>
	<text x="754" y="302.6" fill="#000000" font-family="Trebuchet MS" font-size="14">User</text>
	<text x="734" y="328.6" fill="#000000" font-family="Trebuchet MS" font-size="14">Login</text>
	<line x1="734" y1="331" x2="773" y2="331" stroke="#000000" stroke-width="1"/>
	<text x="734" y="346.6" fill="#000000" font-family="Trebuchet MS" font-size="14">Password</text>
	<text x="734" y="364.6" fill="#000000" font-family="Trebuchet MS" font-size="14">Firstname</text>
	<text x="734" y="382.6" fill="#000000" font-family="Trebuchet MS" font-size="14">Lastname</text>
	<text x="734" y="400.6" fill="#000000" font-family="Trebuchet MS" font-size="14">Nickname</text>
	<text x="734" y="418.6" fill="#000000" font-family="Trebuchet MS" font-size="14">Email</text>
	<text x="734" y="436.6" fill="#000000" font-family="Trebuchet MS" font-size="14">2Fa</text>
</g>

<!-- Entity STATISTIC -->
<g>
	<g>
		<rect x="945" y="311" width="70" height="26" fill="#92c5de" stroke="none" stroke-width="0" opacity="1"/>
		<rect x="945" y="337" width="70" height="80" fill="#d1e5f0" stroke="none" stroke-width="0" opacity="1"/>
		<rect x="945" y="311" width="70" height="106" fill="none" stroke="#4393c3" stroke-width="1.5" opacity="1"/>
		<line x1="945" y1="337" x2="1015" y2="337" stroke="#4393c3" stroke-width="1"/>
	</g>
	<text x="951" y="329.6" fill="#000000" font-family="Trebuchet MS" font-size="14">Statistic</text>
	<text x="950" y="355.6" fill="#000000" font-family="Trebuchet MS" font-size="14">Origin</text>
	<line x1="950" y1="358" x2="993" y2="358" stroke="#000000" stroke-width="1"/>
	<text x="950" y="373.6" fill="#000000" font-family="Trebuchet MS" font-size="14">Count</text>
	<text x="950" y="391.6" fill="#000000" font-family="Trebuchet MS" font-size="14">Date</text>
	<text x="950" y="409.6" fill="#000000" font-family="Trebuchet MS" font-size="14">Type</text>
</g>

<!-- Entity ITEM -->
<g>
	<g>
		<rect x="9" y="415" width="122" height="26" fill="#92c5de" stroke="none" stroke-width="0" opacity="1"/>
		<rect x="9" y="441" width="122" height="152" fill="#d1e5f0" stroke="none" stroke-width="0" opacity="1"/>
		<rect x="9" y="415" width="122" height="178" fill="none" stroke="#4393c3" stroke-width="1.5" opacity="1"/>
		<line x1="9" y1="441" x2="131" y2="441" stroke="#4393c3" stroke-width="1"/>
	</g>
	<text x="54" y="433.6" fill="#000000" font-family="Trebuchet MS" font-size="14">Item</text>
	<text x="14" y="459.6" fill="#000000" font-family="Trebuchet MS" font-size="14">Category</text>
	<line x1="14" y1="462" x2="78" y2="462" stroke="#000000" stroke-width="1"/>
	<text x="14" y="477.6" fill="#000000" font-family="Trebuchet MS" font-size="14">Name</text>
	<text x="14" y="495.6" fill="#000000" font-family="Trebuchet MS" font-size="14">Cost</text>
	<text x="14" y="513.6" fill="#000000" font-family="Trebuchet MS" font-size="14">CommonBonus</text>
	<text x="14" y="531.6" fill="#000000" font-family="Trebuchet MS" font-size="14">Description</text>
	<text x="14" y="549.6" fill="#000000" font-family="Trebuchet MS" font-size="14">ActiveDuration</text>
	<text x="14" y="567.6" fill="#000000" font-family="Trebuchet MS" font-size="14">PassiveDuration</text>
	<text x="14" y="585.6" fill="#000000" font-family="Trebuchet MS" font-size="14">ChildId</text>
</g>

<!-- Entity KEYWORD -->
<g>
	<g>
		<rect x="349" y="478" width="72" height="26" fill="#92c5de" stroke="none" stroke-width="0" opacity="1"/>
		<rect x="349" y="504" width="72" height="26" fill="#d1e5f0" stroke="none" stroke-width="0" opacity="1"/>
		<rect x="349" y="478" width="72" height="52" fill="none" stroke="#4393c3" stroke-width="1.5" opacity="1"/>
		<line x1="349" y1="504" x2="421" y2="504" stroke="#4393c3" stroke-width="1"/>
	</g>
	<text x="354" y="496.6" fill="#000000" font-family="Trebuchet MS" font-size="14">Keyword</text>
	<text x="354" y="522.6" fill="#000000" font-family="Trebuchet MS" font-size="14">Value</text>
	<line x1="354" y1="525" x2="395" y2="525" stroke="#000000" stroke-width="1"/>
</g>

<!-- Entity ROLE -->
<g>
	<g>
		<rect x="848" y="469" width="60" height="26" fill="#92c5de" stroke="none" stroke-width="0" opacity="1"/>
		<rect x="848" y="495" width="60" height="44" fill="#d1e5f0" stroke="none" stroke-width="0" opacity="1"/>
		<rect x="848" y="469" width="60" height="70" fill="none" stroke="#4393c3" stroke-width="1.5" opacity="1"/>
		<line x1="848" y1="495" x2="908" y2="495" stroke="#4393c3" stroke-width="1"/>
	</g>
	<text x="862" y="487.6" fill="#000000" font-family="Trebuchet MS" font-size="14">Role</text>
	<text x="853" y="513.6" fill="#000000" font-family="Trebuchet MS" font-size="14">Name</text>
	<line x1="853" y1="516" x2="894" y2="516" stroke="#000000" stroke-width="1"/>
	<text x="853" y="531.6" fill="#000000" font-family="Trebuchet MS" font-size="14">Weight</text>
</g>
</svg>